<svg xmlns="http://www.w3.org/2000/svg" xmlns:xlink="http://www.w3.org/1999/xlink" width="12" height="12" preserveAspectRatio="xMidYMid meet" viewBox="0 0 12 12" style="-ms-transform: rotate(360deg); -webkit-transform: rotate(360deg); transform: rotate(360deg);"><g fill="none"><path d="M4 4.5a.5.5 0 0 0 .5.5h3a.5.5 0 0 0 0-1h-3a.5.5 0 0 0-.5.5zM4.5 7a.5.5 0 0 1 0-1h3a.5.5 0 0 1 0 1h-3zM4 8.5a.5.5 0 0 0 .5.5h1a.5.5 0 0 0 0-1h-1a.5.5 0 0 0-.5.5zm0-7a.5.5 0 0 1 1 0V2h2v-.5a.5.5 0 0 1 1 0V2a2 2 0 0 1 2 2v4l-3 3H4a2 2 0 0 1-2-2V4a2 2 0 0 1 2-2v-.5zM7 10V8.5a.5.5 0 0 1 .5-.5H9V4a1 1 0 0 0-1-1H4a1 1 0 0 0-1 1v5a1 1 0 0 0 1 1h3z" fill="#000000"/></g><rect x="0" y="0" width="12" height="12" fill="rgba(0, 0, 0, 0)" /></svg>